<svg width="123" height="86" viewBox="0 0 123 86" fill="none" xmlns="http://www.w3.org/2000/svg">
<circle cx="95.1569" cy="58.098" r="27.8431" fill="#F5F6FF"/>
<ellipse cx="17.5" cy="68" rx="17.5" ry="18" fill="#F5F6FF"/>
<circle cx="55.5" cy="39.5" r="39.5" fill="#F5F6FF"/>
<path d="M57.0215 21.4229H51.0338V29.2704H57.0215V21.4229Z" fill="#F8C4AB"/>
<path d="M51.0338 24.326L57.0215 22.6022V21.4229H51.0338V24.326Z" fill="black"/>
<path d="M75.4384 85.7L75.393 68.6895L45.0462 70.0957L44.5472 85.7H75.4384Z" fill="#8261D9"/>
<path d="M59.0628 85.7L64.4608 67.1018L41.3718 70.9122L35.1119 85.7H59.0628Z" fill="#8261D9"/>
<path d="M93.5375 58.5286C92.7664 48.0047 90.8612 36.9365 83.8755 28.8622C81.0178 25.5508 76.4363 23.6456 70.5846 23.9178C66.5928 24.0992 54.8442 26.5488 54.8442 26.5488C52.4854 26.6395 40.7368 27.2292 33.7058 31.8107L34.7038 41.3366C35.2935 52.5862 35.7471 58.5286 35.7471 58.5286L50.2174 61.7946L51.1246 78.2154L77.2981 77.036C77.3435 77.0814 94.6716 73.9061 93.5375 58.5286Z" fill="#E2E4FF"/>
<path d="M55.3432 30.5859C59.6525 29.3611 61.9659 26.8209 62.8731 25.0972L54.9349 26.3673C53.8009 26.4126 50.4441 26.7755 46.4977 27.5013C47.6317 29.1343 50.5348 31.9467 55.3432 30.5859Z" fill="#F8C4AB"/>
<path d="M61.8752 63.2914C61.7845 63.2914 61.6938 63.2007 61.6484 63.11C61.603 62.9739 61.6938 62.8378 61.8298 62.7925L77.5702 58.6646C77.7063 58.6192 77.8424 58.7099 77.8878 58.846C77.9331 58.9821 77.8424 59.1182 77.7063 59.1635L61.9659 63.2914C61.9659 63.2914 61.9206 63.2914 61.8752 63.2914Z" fill="black"/>
<path d="M46.8607 67.1925C46.77 67.1925 46.6792 67.1018 46.6339 67.0111C46.5885 66.875 46.6792 66.7389 46.8153 66.6935L62.5557 62.5656C62.6918 62.5203 62.8279 62.611 62.8733 62.7471C62.9186 62.8832 62.8279 63.0192 62.6918 63.0646L46.9514 67.1925C46.9514 67.1925 46.906 67.1925 46.8607 67.1925Z" fill="black"/>
<path d="M76.3454 59.3904C76.3001 59.345 76.2547 59.2996 76.2547 59.2543C76.2094 59.1182 76.3001 58.9821 76.4362 58.9368L81.2898 57.2584C81.4259 57.213 81.562 57.3037 81.6074 57.4398C81.6527 57.5759 81.562 57.712 81.4259 57.7574L76.5722 59.4357C76.4815 59.4357 76.3908 59.4357 76.3454 59.3904Z" fill="black"/>
<path d="M76.3455 59.4811C76.2548 59.4357 76.2094 59.345 76.2094 59.2543L74.8032 41.8809C74.8032 41.7448 74.8939 41.6087 75.03 41.6087C75.1661 41.6087 75.3022 41.6994 75.3022 41.8355L76.7084 59.2089C76.7084 59.345 76.6177 59.4811 76.4816 59.4811C76.4362 59.5265 76.3909 59.5265 76.3455 59.4811Z" fill="black"/>
<path d="M75.3022 47.5057C75.2569 47.5057 75.2115 47.4603 75.2115 47.415L72.7166 43.1963C72.6259 43.0603 72.6713 42.9242 72.8074 42.8335C72.9434 42.7427 73.0795 42.7881 73.1702 42.9242L75.6651 47.1428C75.7558 47.2789 75.7105 47.415 75.5744 47.5057C75.4837 47.551 75.393 47.551 75.3022 47.5057Z" fill="black"/>
<path d="M73.5785 85.7L73.8961 78.0339C73.8961 77.8979 73.8053 77.8071 73.6239 77.8071C73.4878 77.8071 73.3517 77.8979 73.3517 77.9886L73.0342 85.6547H73.5785V85.7Z" fill="white"/>
<path d="M52.6669 21.695C57.3016 21.695 61.0587 18.1816 61.0587 13.8475C61.0587 9.51346 57.3016 6 52.6669 6C48.0322 6 44.275 9.51346 44.275 13.8475C44.275 18.1816 48.0322 21.695 52.6669 21.695Z" fill="#59BCC0"/>
<path d="M52.8937 22.8291C57.1025 22.8291 60.5144 19.1938 60.5144 14.7094C60.5144 10.225 57.1025 6.58972 52.8937 6.58972C48.6849 6.58972 45.2729 10.225 45.2729 14.7094C45.2729 19.1938 48.6849 22.8291 52.8937 22.8291Z" fill="#F8C4AB"/>
<path d="M52.9895 18.6124C52.3104 18.6541 51.8771 18.9989 51.8346 19.0469C51.7468 19.0978 51.7551 19.2336 51.806 19.3214C51.8568 19.4091 51.9926 19.4008 52.0804 19.35C52.1229 19.3019 53.2048 18.4174 54.7426 19.7773C54.8387 19.8623 54.9292 19.8567 55.0142 19.7606C55.0992 19.6645 55.0937 19.5739 54.9976 19.4889C54.2259 18.7637 53.5328 18.5791 52.9895 18.6124Z" fill="black"/>
<path d="M51.1217 13.698C51.0773 13.6887 51.0329 13.6793 51.0423 13.635C49.729 12.3854 47.9887 12.9465 47.9887 12.9465C47.8906 12.9722 47.7574 12.9442 47.741 12.8017C47.7153 12.7036 47.7433 12.5704 47.8858 12.554C47.9839 12.5283 49.8761 11.9064 51.3389 13.3265C51.4184 13.3896 51.4347 13.5321 51.3273 13.6022C51.2642 13.6816 51.1661 13.7074 51.1217 13.698Z" fill="black"/>
<path d="M54.6926 11.5871C54.6472 11.5871 54.5565 11.5417 54.5111 11.4963C54.4658 11.4056 54.4658 11.2695 54.5565 11.2242C56.2802 10.1355 58.0493 11.1334 58.0947 11.1788C58.1854 11.2242 58.2308 11.3603 58.1854 11.451C58.14 11.5417 58.0039 11.5871 57.9132 11.5417C57.9132 11.5417 56.2802 10.6345 54.7833 11.5871C54.7379 11.5417 54.6926 11.5871 54.6926 11.5871Z" fill="black"/>
<path d="M59.4711 9.81038C58.1557 7.85984 55.7061 6.58972 52.9391 6.58972C49.7638 6.58972 47.0875 8.26809 45.9081 10.6269C46.8607 10.8991 48.5844 10.9898 49.9906 8.90315C49.9906 8.90315 50.0813 10.4908 52.0319 10.0826C53.9824 9.6743 54.6175 7.9052 54.6175 7.9052C54.6175 7.9052 56.5227 10.4908 59.4711 9.81038Z" fill="#59BCC0"/>
<path d="M46.3162 15.7073C45.6812 14.5733 44.3203 14.1197 43.3224 14.664C42.3244 15.2537 42.0523 16.6599 42.6873 17.794C43.3224 18.928 44.6832 19.3816 45.6812 18.8373C46.6791 18.2929 46.9513 16.8867 46.3162 15.7073Z" fill="#F8C4AB"/>
<path d="M45.3183 17.3857C45.2729 17.3857 45.2276 17.3857 45.1822 17.3404L43.3678 16.0249C43.277 15.9795 43.277 15.8434 43.3224 15.7527C43.3678 15.662 43.5038 15.662 43.5946 15.7073L45.409 17.0228C45.4997 17.0682 45.4997 17.2043 45.4544 17.295C45.409 17.3857 45.3637 17.3857 45.3183 17.3857Z" fill="black"/>
<path d="M44.0029 17.93C43.9575 17.93 43.9121 17.93 43.8668 17.8847C43.7761 17.7939 43.7761 17.7032 43.8214 17.6125L44.5018 16.796C44.5926 16.7053 44.6833 16.7053 44.774 16.7506C44.8647 16.8413 44.8647 16.9321 44.8194 17.0228L44.139 17.8393C44.139 17.8847 44.0482 17.93 44.0029 17.93Z" fill="black"/>
<path d="M59.6526 15.2537C60.2876 14.1197 61.6485 13.6661 62.6464 14.2104C63.6444 14.8001 63.9165 16.2063 63.2815 17.3404C62.6464 18.4744 61.2856 18.928 60.2876 18.3837C59.2897 17.794 58.9721 16.3878 59.6526 15.2537Z" fill="#F8C4AB"/>
<path d="M60.6505 16.9321C60.6051 16.9321 60.5144 16.8867 60.469 16.8414C60.4236 16.7507 60.4236 16.6146 60.5144 16.5692L62.3288 15.2537C62.4195 15.2084 62.5556 15.2084 62.601 15.2991C62.6464 15.3898 62.6464 15.5259 62.5556 15.5713L60.7412 16.8867C60.7412 16.9321 60.6958 16.9321 60.6505 16.9321Z" fill="black"/>
<path d="M61.9206 17.4311C61.8753 17.4311 61.7846 17.3857 61.7846 17.3403L61.1041 16.5238C61.0134 16.4331 61.0588 16.297 61.1495 16.2517C61.2402 16.1609 61.3763 16.2063 61.4217 16.297L62.1021 17.1135C62.1928 17.2042 62.1474 17.3403 62.0567 17.3857C62.0114 17.4311 61.966 17.4311 61.9206 17.4311Z" fill="black"/>
<path d="M54.6174 15.5713C54.6174 15.5713 56.4772 11.6702 59.9247 13.4846C59.9247 13.4846 58.2917 17.5218 54.6174 15.5713Z" fill="white"/>
<path d="M51.7597 15.6166C51.7597 15.6166 49.4916 12.033 46.3163 14.2104C46.3616 14.2104 48.4483 17.93 51.7597 15.6166Z" fill="white"/>
<path d="M52.4401 17.2042C52.3947 17.2042 52.3947 17.2042 52.3494 17.2042C52.2586 17.1589 52.2133 17.0228 52.2586 16.932L52.9844 15.3444C53.0298 15.299 53.0751 15.2537 53.1205 15.2083C53.2112 15.2083 53.2566 15.2083 53.302 15.299L54.1185 16.3877C54.1638 16.4784 54.1638 16.6145 54.0731 16.6599C53.9824 16.7052 53.8463 16.7052 53.8009 16.6145L53.1659 15.798L52.5762 17.1135C52.5762 17.2042 52.4854 17.2042 52.4401 17.2042Z" fill="black"/>
<mask id="mask0_1076_722" style="mask-type:luminance" maskUnits="userSpaceOnUse" x="46" y="13" width="6" height="4">
<path d="M51.7597 15.6166C51.7597 15.6166 49.4916 12.033 46.3163 14.2104C46.3616 14.2104 48.4483 17.93 51.7597 15.6166Z" fill="white"/>
</mask>
<g mask="url(#mask0_1076_722)">
<path d="M50.9431 14.6186C51.1245 15.6619 50.3988 16.6599 49.3555 16.7959C48.3121 16.9774 47.3142 16.2516 47.1781 15.2083C46.9967 14.165 47.7224 13.167 48.7658 13.031C49.8091 12.8495 50.807 13.5753 50.9431 14.6186Z" fill="black"/>
</g>
<mask id="mask1_1076_722" style="mask-type:luminance" maskUnits="userSpaceOnUse" x="54" y="13" width="6" height="4">
<path d="M54.6174 15.5713C54.6174 15.5713 56.4772 11.6702 59.9247 13.4846C59.9247 13.4846 58.2917 17.5218 54.6174 15.5713Z" fill="white"/>
</mask>
<g mask="url(#mask1_1076_722)">
<path d="M59.199 14.8455C59.0176 15.8888 58.0196 16.6146 56.9763 16.4331C55.933 16.2517 55.2072 15.2537 55.3887 14.2104C55.5701 13.1671 56.5681 12.4413 57.6114 12.6227C58.6547 12.8496 59.3351 13.8021 59.199 14.8455Z" fill="black"/>
</g>
<path d="M24.2253 67.6915C24.1345 67.0565 24.0892 66.4668 24.0438 65.8317C23.9531 66.4214 23.9984 67.0111 24.2253 67.6915Z" fill="#FFC849"/>
<path d="M48.4029 74.0875C47.8586 74.4504 47.2689 74.8133 46.6792 75.1762C47.0875 74.9494 47.5411 74.6772 47.9493 74.4051C47.9947 74.4051 48.04 74.3597 48.1308 74.269C48.2215 74.269 48.3122 74.1782 48.4029 74.0875Z" fill="#FFC849"/>
<path d="M57.0216 22.6023L59.9247 24.1446C60.9227 24.6889 61.5124 25.823 61.2856 26.957L60.6959 30.4498C60.6505 30.7673 60.4691 31.0395 60.1515 31.221L58.3371 32.3096C57.8835 32.5818 57.2938 32.5818 56.8401 32.2643L55.071 31.1756L57.0216 22.6023Z" fill="#F8C4AB"/>
<path d="M50.9431 32.5364L50.9885 35.5302L46.0441 33.5343C46.0441 33.5343 45.908 31.4023 48.4936 28.0002C49.673 26.4579 50.0359 26.0497 54.0731 23.0105C55.8875 21.6496 59.8793 21.4682 62.9185 21.3775C64.0072 21.3321 64.8237 21.196 65.2773 21.6043C65.9124 22.1032 65.6856 23.4187 64.5062 23.5094C61.4216 23.7816 57.4752 24.1899 57.4752 24.1899C57.4752 24.1899 57.4298 24.2352 57.3844 24.2352C58.0649 25.5507 58.6092 27.3652 56.7947 29.6786C54.4813 32.6725 50.9431 32.5364 50.9431 32.5364Z" fill="#F8C4AB"/>
<path d="M61.2402 27.7734C61.1948 27.7734 61.1494 27.7281 61.1494 27.6827C61.1494 27.6374 60.7866 26.8208 57.203 25.6868C57.1123 25.6415 57.0669 25.5961 57.1123 25.5054C57.1576 25.4146 57.203 25.3693 57.2937 25.4146C61.1041 26.594 61.4216 27.5013 61.4216 27.592C61.4216 27.6827 61.3763 27.7281 61.3309 27.7734C61.2855 27.7734 61.2402 27.7734 61.2402 27.7734Z" fill="black"/>
<path d="M60.8319 30.0869C60.7866 30.0869 60.7866 30.0415 60.7412 29.9962C60.7412 29.9962 60.2876 29.1797 56.9762 28.091C56.8855 28.0456 56.8401 28.0003 56.8855 27.9095C56.9308 27.8188 56.9762 27.7735 57.0669 27.8188C60.5144 28.9529 60.968 29.8147 60.968 29.9054C61.0134 29.9962 60.968 30.0415 60.8773 30.0869C60.8773 30.1323 60.8773 30.1323 60.8319 30.0869Z" fill="black"/>
<path d="M55.1164 31.4931C55.1164 31.4931 55.071 31.4931 55.071 31.4478C55.0256 31.4024 55.0256 31.3117 55.071 31.221L56.3865 30.0869C56.4318 30.0416 56.5226 30.0416 56.6133 30.0869C56.6587 30.1323 56.6587 30.223 56.6133 30.3137L55.2978 31.4478C55.2071 31.4931 55.1617 31.4931 55.1164 31.4931Z" fill="black"/>
<path d="M56.2504 30.223C56.1597 30.1777 56.1597 30.0869 56.1597 30.0416C56.205 29.9509 56.2958 29.9509 56.3411 29.9509L58.5638 30.8581C58.6545 30.9035 58.6545 30.9942 58.6545 31.0395C58.6092 31.1303 58.5185 31.1303 58.4731 31.1303L56.2504 30.223Z" fill="black"/>
<path d="M57.0669 31.7653C57.0215 31.7653 57.0215 31.7199 57.0215 31.7199C56.8855 31.5384 56.8855 31.2663 56.9308 30.9941C57.0215 30.7219 57.1576 30.4951 57.3391 30.4044C57.4298 30.359 57.4752 30.4044 57.5205 30.4498C57.5659 30.5405 57.5205 30.5859 57.4752 30.6312C57.3844 30.6766 57.2483 30.858 57.203 31.0395C57.1576 31.2209 57.1576 31.4477 57.2483 31.5384C57.2937 31.5838 57.2937 31.6745 57.203 31.7199C57.1576 31.8106 57.1123 31.8106 57.0669 31.7653Z" fill="black"/>
<path d="M55.7968 23.5095C55.7515 23.5095 55.7515 23.4642 55.7515 23.4642C55.7061 23.4188 55.7061 23.3281 55.7968 23.2827C57.0216 22.4662 59.8794 23.8724 60.0154 23.9178C60.1062 23.9631 60.1062 24.0539 60.0608 24.0992C60.0155 24.1899 59.9247 24.1899 59.8794 24.1446C59.834 24.1446 57.0216 22.7837 55.9329 23.5095C55.8876 23.5095 55.8422 23.5095 55.7968 23.5095Z" fill="black"/>
<path d="M49.174 74.6318C49.2648 74.5411 49.3555 74.3143 49.3555 74.3143C49.4008 74.2236 49.4008 74.2689 49.4916 74.1329C51.1246 71.5926 51.306 71.0936 52.2586 69.3699C53.1205 67.7823 53.438 67.4194 54.2092 64.8338C54.2545 64.5616 54.7081 63.5637 54.7989 63.2915C55.2071 61.5677 55.2978 61.0688 55.7061 59.2997C55.8875 58.4378 55.8875 58.3925 56.1143 57.5306C56.1597 57.3038 56.3865 56.1697 56.4319 56.0337C56.4319 55.6708 56.8855 52.0872 56.8855 51.7697C56.9308 49.8191 56.8401 49.3202 56.9762 47.415C57.0216 47.0067 56.8401 45.8727 56.8401 45.4645C56.8401 45.4191 56.7494 44.5572 56.7494 44.5572C56.5679 43.3325 56.568 43.7861 56.4319 42.5613C55.7968 40.6108 55.5246 38.8417 55.2978 38.4788C54.5267 38.6149 54.9803 37.3448 54.2545 37.0726C51.4421 35.9839 47.7678 34.1241 45.1369 33.1715C45.1369 33.1715 43.5946 35.0767 42.0069 37.6623C42.3698 36.2561 45.4544 28.6354 46.3163 27.6828C42.4152 27.4106 35.7924 27.5013 32.4357 30.6313C28.58 34.2148 29.8501 46.417 30.5305 53.2213C31.347 61.6585 34.2501 77.6711 42.6874 77.6711C44.4111 77.6711 46.5884 77.3989 47.8132 76.1288C48.2215 75.5844 48.7204 75.1308 49.174 74.6318Z" fill="#E2E4FF"/>
<path d="M56.1143 58.1656C56.0689 58.211 56.0236 58.211 55.9782 58.1656C55.8421 58.1203 55.7968 57.9842 55.7968 57.8935C55.8421 57.7574 58.6092 44.9201 54.2545 37.3447L45.1822 33.4437C44.3203 34.5323 37.7429 43.1056 36.8357 54.7182C36.8357 54.8543 36.745 54.945 36.6089 54.8996C36.4728 54.8996 36.3821 54.7635 36.4274 54.6274C37.38 42.1077 44.8647 33.0808 44.9554 32.9901C45.0008 32.9447 45.0915 32.8993 45.1822 32.9447L54.4813 36.9365C54.5267 36.9365 54.572 36.9819 54.572 37.0272C59.1082 44.7387 56.2504 57.8481 56.205 57.9842C56.205 58.0749 56.1597 58.1203 56.1143 58.1656Z" fill="black"/>
<path d="M46.0895 64.8338L52.8029 64.0627C53.937 63.9266 54.8896 64.7885 54.9803 65.9225C55.071 67.1019 54.1638 68.1452 52.9844 68.1906L46.2709 68.4627C45.2729 68.5081 44.4564 67.6916 44.5018 66.6483C44.5018 65.7411 45.1822 64.9245 46.0895 64.8338Z" fill="#F8C4AB"/>
<path d="M45.9534 72.3638L54.0278 71.9555C54.8896 71.9102 55.6608 71.2298 55.7969 70.3225L55.8422 70.1411C56.069 68.9163 55.1165 67.7823 53.9371 67.873L45.8627 68.5081C44.9101 68.5988 44.139 69.4153 44.0936 70.4586C44.0483 71.5473 44.9101 72.4545 45.9534 72.3638Z" fill="#F8C4AB"/>
<path d="M46.0895 73.8607C46.1348 72.9988 46.7699 72.3184 47.6317 72.2731L52.9844 71.7741C53.8463 71.6834 54.6174 72.2731 54.7988 73.1349L54.8896 73.5432C55.1164 74.5865 54.2999 75.5844 53.2566 75.5844L47.8132 75.6298C46.8606 75.6752 46.0441 74.8587 46.0895 73.8607Z" fill="#F8C4AB"/>
<path d="M47.4049 76.8546C47.541 76.2195 48.0853 75.7206 48.675 75.6752L53.0751 75.3577C53.8009 75.3123 54.3906 75.902 54.3906 76.6732V77.1721C54.3906 78.034 53.7102 78.7598 52.939 78.7144L48.4936 78.533C47.7678 78.4876 47.2235 77.7165 47.4049 76.8546Z" fill="#F8C4AB"/>
<path d="M54.3452 67.8277C54.2999 67.7369 54.2091 67.7369 54.1184 67.7823C53.8463 67.9184 53.3019 68.0545 52.9844 68.0998L45.8626 68.4627C45.8173 68.4627 44.6832 68.5988 44.0935 69.3699C43.776 69.7782 43.6853 70.2772 43.776 70.8215C44.1389 72.9535 47.1328 72.636 47.3596 72.5906L51.6235 72.4545C51.9411 72.4545 53.6648 72.3184 54.1184 72.2277C54.2091 72.2277 54.2545 72.137 54.2545 72.0463C54.2545 71.9555 54.1638 71.9102 54.0731 71.9102C53.6194 71.9555 51.9411 72.137 51.6235 72.137L47.3596 72.2731C47.3142 72.2731 44.4564 72.636 44.1389 70.7761C44.0482 70.2772 44.1389 69.8689 44.4111 69.5514C44.9101 68.871 45.9534 68.7802 45.9534 68.7802L53.0751 68.4174C53.438 68.4174 54.0277 68.2813 54.3452 68.0545C54.3452 68.0091 54.3906 67.9184 54.3452 67.8277Z" fill="black"/>
<path d="M54.0731 75.4937C54.0277 75.4484 53.9824 75.403 53.8916 75.403C53.4834 75.4484 50.8524 75.5391 50.3988 75.5391C49.9905 75.5391 48.6751 75.5844 48.5843 75.5844C48.539 75.5844 46.0895 75.6298 46.0441 73.9968C46.0441 73.4525 46.3163 72.9988 46.9513 72.772C47.4503 72.5906 47.9039 72.5452 47.9039 72.5452C47.9946 72.5452 48.0854 72.4545 48.04 72.3638C48.04 72.2731 47.9493 72.1823 47.8586 72.2277C47.0874 72.2731 45.6359 72.6813 45.6812 73.9968C45.7266 75.5391 47.5864 75.902 48.5843 75.902C48.5843 75.902 49.9905 75.8566 50.3534 75.8566C50.7617 75.8566 53.3927 75.8113 53.8916 75.7205C53.9824 75.7205 54.0277 75.6298 54.0277 75.5391C54.0731 75.5391 54.0731 75.5391 54.0731 75.4937Z" fill="black"/>
<path d="M53.1658 63.8812C53.1204 63.8359 53.0751 63.7905 53.0297 63.7905C52.9843 63.7905 48.7204 64.1534 46.9513 64.3349C45.1368 64.5163 44.0935 65.4235 44.1389 66.7844C44.1842 68.4174 45.8626 68.7349 45.8626 68.7349C45.9533 68.7349 46.0441 68.6896 46.0441 68.5988C46.0441 68.5081 45.9987 68.4174 45.908 68.4174C45.8626 68.4174 44.4564 68.1452 44.4564 66.7844C44.411 65.5596 45.3183 64.8338 46.9966 64.6524C48.7204 64.4709 53.0297 64.1081 53.0297 64.1081C53.1204 64.1081 53.1658 64.0173 53.1658 63.9266V63.8812Z" fill="black"/>
<path d="M73.6239 37.0272C73.4878 37.0272 73.3517 36.9365 73.3517 36.8004C72.8528 30.8127 74.6219 26.957 76.1641 24.7343C76.2549 24.5982 76.391 24.5982 76.527 24.6889C76.6631 24.7796 76.6631 24.9157 76.5724 25.0518C75.0755 27.1838 73.3517 30.9488 73.8507 36.755C73.8961 36.8911 73.76 36.9818 73.6239 37.0272Z" fill="black"/>
</svg>
